<svg width="1280" height="560" viewBox="0 0 1280 560" fill="none" xmlns="http://www.w3.org/2000/svg" role="img" aria-labelledby="title desc">
  <title id="title">HELMOR Agent OS</title>
  <desc id="desc">A dark product banner showing HELMOR Agent OS as a local AI agent operating system.</desc>
  <rect width="1280" height="560" rx="32" fill="#06080D"/>
  <rect x="42" y="42" width="1196" height="476" rx="28" fill="#0B111B" stroke="#1F2A38"/>
  <path d="M94 126C94 106.118 110.118 90 130 90H1150C1169.88 90 1186 106.118 1186 126V434C1186 453.882 1169.88 470 1150 470H130C110.118 470 94 453.882 94 434V126Z" fill="#0E1724"/>
  <path d="M94 142H1186" stroke="#263347"/>
  <circle cx="130" cy="116" r="8" fill="#FF6B6B"/>
  <circle cx="156" cy="116" r="8" fill="#FFD166"/>
  <circle cx="182" cy="116" r="8" fill="#06D6A0"/>
  <text x="130" y="206" fill="#EAF1FF" font-family="Inter, Arial, sans-serif" font-size="54" font-weight="800">HELMOR Agent OS</text>
  <text x="132" y="252" fill="#9FB0CA" font-family="Inter, Arial, sans-serif" font-size="22">The local AI agent operating system for cleaner context, safer agents, and fewer wasted tokens.</text>
  <g transform="translate(132 304)">
    <rect width="220" height="46" rx="12" fill="#19C37D"/>
    <text x="24" y="30" fill="#04110B" font-family="Inter, Arial, sans-serif" font-size="18" font-weight="800">brew install helmor</text>
  </g>
  <g transform="translate(374 304)">
    <rect width="168" height="46" rx="12" fill="#111827" stroke="#2B3B52"/>
    <text x="24" y="30" fill="#D9E4F5" font-family="Inter, Arial, sans-serif" font-size="18" font-weight="700">helmor init</text>
  </g>
  <g transform="translate(132 386)">
    <rect width="144" height="36" rx="18" fill="#111827" stroke="#2B3B52"/>
    <text x="22" y="24" fill="#BFD0E8" font-family="Inter, Arial, sans-serif" font-size="15" font-weight="700">observe first</text>
    <rect x="160" width="160" height="36" rx="18" fill="#111827" stroke="#2B3B52"/>
    <text x="182" y="24" fill="#BFD0E8" font-family="Inter, Arial, sans-serif" font-size="15" font-weight="700">agent adapters</text>
    <rect x="336" width="170" height="36" rx="18" fill="#111827" stroke="#2B3B52"/>
    <text x="358" y="24" fill="#BFD0E8" font-family="Inter, Arial, sans-serif" font-size="15" font-weight="700">token reduction</text>
    <rect x="522" width="158" height="36" rx="18" fill="#111827" stroke="#2B3B52"/>
    <text x="544" y="24" fill="#BFD0E8" font-family="Inter, Arial, sans-serif" font-size="15" font-weight="700">strict gates</text>
  </g>
  <g transform="translate(740 190)">
    <rect width="330" height="236" rx="18" fill="#060B12" stroke="#2B3B52"/>
    <text x="28" y="48" fill="#19C37D" font-family="JetBrains Mono, Menlo, monospace" font-size="16">$ helmor doctor</text>
    <text x="28" y="86" fill="#D9E4F5" font-family="JetBrains Mono, Menlo, monospace" font-size="16">mode: observe</text>
    <text x="28" y="118" fill="#D9E4F5" font-family="JetBrains Mono, Menlo, monospace" font-size="16">runner: nub</text>
    <text x="28" y="150" fill="#D9E4F5" font-family="JetBrains Mono, Menlo, monospace" font-size="16">agents: 4 ready</text>
    <text x="28" y="182" fill="#FFD166" font-family="JetBrains Mono, Menlo, monospace" font-size="16">warn: stale context</text>
    <text x="28" y="214" fill="#19C37D" font-family="JetBrains Mono, Menlo, monospace" font-size="16">ok: no secrets</text>
  </g>
</svg>
